<svg width="26" height="26" viewBox="0 0 26 26" fill="none" xmlns="http://www.w3.org/2000/svg">
<path d="M13 8.83447C10.7063 8.83447 8.8344 10.7063 8.8344 13.0001C8.8344 15.2938 10.7063 17.1657 13 17.1657C15.2938 17.1657 17.1657 15.2938 17.1657 13.0001C17.1657 10.7063 15.2938 8.83447 13 8.83447ZM25.4938 13.0001C25.4938 11.2751 25.5094 9.56572 25.4125 7.84385C25.3157 5.84385 24.8594 4.06885 23.3969 2.60635C21.9313 1.14072 20.1594 0.687599 18.1594 0.590724C16.4344 0.493849 14.725 0.509474 13.0031 0.509474C11.2781 0.509474 9.56878 0.493849 7.8469 0.590724C5.8469 0.687599 4.0719 1.14385 2.6094 2.60635C1.14378 4.07197 0.690651 5.84385 0.593776 7.84385C0.496901 9.56885 0.512526 11.2782 0.512526 13.0001C0.512526 14.722 0.496901 16.4345 0.593776 18.1563C0.690651 20.1563 1.1469 21.9313 2.6094 23.3938C4.07503 24.8595 5.8469 25.3126 7.8469 25.4095C9.5719 25.5063 11.2813 25.4907 13.0031 25.4907C14.7282 25.4907 16.4375 25.5063 18.1594 25.4095C20.1594 25.3126 21.9344 24.8563 23.3969 23.3938C24.8625 21.9282 25.3157 20.1563 25.4125 18.1563C25.5125 16.4345 25.4938 14.7251 25.4938 13.0001ZM13 19.4095C9.45315 19.4095 6.59065 16.547 6.59065 13.0001C6.59065 9.45322 9.45315 6.59072 13 6.59072C16.5469 6.59072 19.4094 9.45322 19.4094 13.0001C19.4094 16.547 16.5469 19.4095 13 19.4095ZM19.6719 7.8251C18.8438 7.8251 18.175 7.15635 18.175 6.32822C18.175 5.5001 18.8438 4.83135 19.6719 4.83135C20.5 4.83135 21.1688 5.5001 21.1688 6.32822C21.169 6.52487 21.1305 6.71962 21.0553 6.90135C20.9802 7.08307 20.8699 7.24818 20.7309 7.38723C20.5919 7.52627 20.4267 7.63652 20.245 7.71166C20.0633 7.7868 19.8685 7.82535 19.6719 7.8251Z" fill="#FDFDFD"/>
</svg>
