<svg width="32" height="32" viewBox="0 0 32 32" fill="none" xmlns="http://www.w3.org/2000/svg">
<path d="M16 0.639893C7.51682 0.639893 0.640015 7.51669 0.640015 15.9999C0.640015 24.4831 7.51682 31.3599 16 31.3599C24.4832 31.3599 31.36 24.4831 31.36 15.9999C31.36 7.51669 24.4832 0.639893 16 0.639893ZM12.24 22.3663H9.12961V12.3567H12.24V22.3663ZM10.6656 11.1279C9.68321 11.1279 9.04801 10.4319 9.04801 9.57109C9.04801 8.69269 9.70241 8.01749 10.7056 8.01749C11.7088 8.01749 12.3232 8.69269 12.3424 9.57109C12.3424 10.4319 11.7088 11.1279 10.6656 11.1279ZM23.6 22.3663H20.4896V16.8191C20.4896 15.5279 20.0384 14.6511 18.9136 14.6511C18.0544 14.6511 17.544 15.2447 17.3184 15.8159C17.2352 16.0191 17.2144 16.3071 17.2144 16.5935V22.3647H14.1024V15.5487C14.1024 14.2991 14.0624 13.2543 14.0208 12.3551H16.7232L16.8656 13.7455H16.928C17.3376 13.0927 18.3408 12.1295 20.0192 12.1295C22.0656 12.1295 23.6 13.5007 23.6 16.4479V22.3663Z" fill="#FDFDFD"/>
</svg>
