<svg width="72" height="72" viewBox="0 0 72 72" fill="none" xmlns="http://www.w3.org/2000/svg">
<path d="M61.393 46.6073C63.1374 42.4314 63.825 37.8898 63.3949 33.3847C62.9648 28.8797 61.4303 24.5502 58.9274 20.7798C56.4244 17.0094 53.0302 13.9145 49.0454 11.7692C45.0606 9.62396 40.6083 8.49452 36.0828 8.48096C31.5572 8.46739 27.0982 9.57013 23.1006 11.6915C19.1031 13.8129 15.6904 16.8874 13.1649 20.6427C10.6393 24.398 9.07891 28.7182 8.62184 33.2206C8.16476 37.723 8.82512 42.2686 10.5444 46.4549L17.2353 43.7069C15.9679 40.621 15.4811 37.2701 15.818 33.9511C16.155 30.6321 17.3052 27.4475 19.167 24.6792C21.0287 21.9109 23.5444 19.6446 26.4912 18.0808C29.438 16.517 32.725 15.7041 36.0611 15.7141C39.3971 15.7241 42.6792 16.5567 45.6166 18.1381C48.554 19.7195 51.0561 22.0009 52.9012 24.7803C54.7463 27.5597 55.8774 30.7512 56.1945 34.0721C56.5115 37.3931 56.0046 40.741 54.7187 43.8192L61.393 46.6073Z" fill="#537FE7"/>
<path d="M45.3961 26.0918V48.5558H39.9241V39.3078H31.4121V48.5558H25.9401V26.0918H31.4121V34.8918H39.9241V26.0918H45.3961Z" fill="#537FE7"/>
</svg>
